<svg version="1.1" id="Layer_1" xmlns="http://www.w3.org/2000/svg" xmlns:xlink="http://www.w3.org/1999/xlink" x="0px" y="0px"
	 width="100%" viewBox="0 0 807 766" enable-background="new 0 0 807 766" xml:space="preserve">
<path fill="#000000" opacity="1.000000" stroke="none" 
	d="
M808.000000,4.000000 
	C808.000000,258.265717 808.000000,512.531433 808.000000,767.000000 
	C540.971985,767.000000 273.943939,767.000000 6.407622,766.533447 
	C5.888875,765.400513 5.869249,764.734070 5.869245,764.067688 
	C5.867667,512.587036 5.867447,261.106323 5.867556,9.625659 
	C5.867556,8.792404 5.551440,7.737035 5.942011,7.171483 
	C6.791945,5.940768 7.826551,4.545296 9.117403,3.994257 
	C10.387234,3.452192 12.066966,3.867564 13.566834,3.867562 
	C276.213318,3.867152 538.859802,3.866848 801.506287,3.872660 
	C803.670837,3.872708 805.835449,3.955723 808.000000,4.000000 
M671.290283,495.797607 
	C689.780640,478.839935 702.275574,458.067535 709.214661,434.132568 
	C721.486145,391.804565 721.733093,349.056366 711.888062,306.247009 
	C705.338440,277.767578 692.627441,252.407913 671.132629,232.181396 
	C643.524963,206.202591 609.684631,194.414246 572.595886,193.326065 
	C532.477295,192.148972 492.291016,193.271698 452.134369,193.415039 
	C449.535248,193.424301 446.936890,193.636322 444.374512,193.752380 
	C444.374512,306.675720 444.374512,419.109650 444.374512,531.841309 
	C445.526978,531.901550 446.484344,531.986084 447.442535,531.996704 
	C478.102448,532.335388 508.762909,532.945190 539.422119,532.886841 
	C555.725586,532.855896 572.137939,532.637573 588.305237,530.790161 
	C618.961853,527.286865 647.073242,516.850342 671.290283,495.797607 
M377.813538,240.231888 
	C381.753265,224.837814 385.692963,209.443741 389.712219,193.738983 
	C361.543884,193.738983 334.448761,193.738983 308.106262,193.738983 
	C302.302307,213.266403 297.348419,232.608566 290.802246,251.395920 
	C277.573120,289.363159 254.880661,319.772461 217.981018,338.061462 
	C212.055313,340.998505 211.436646,343.576599 215.028793,349.372437 
	C251.987915,409.004852 288.977051,468.618683 325.863800,528.295776 
	C327.533539,530.997131 329.181549,532.115601 332.490662,532.095825 
	C360.155457,531.930603 387.821655,532.005493 415.487427,531.991577 
	C416.863220,531.990906 418.238953,531.838928 420.067780,531.730591 
	C380.949371,472.207184 342.175964,413.208710 303.304535,354.061127 
	C305.046844,352.556946 306.477753,351.437988 307.776154,350.182037 
	C317.220947,341.046051 327.410736,332.542084 335.911713,322.596130 
	C356.239899,298.812439 368.001007,270.405579 377.813538,240.231888 
M204.087311,193.486755 
	C177.841644,193.486755 151.595978,193.486755 125.377174,193.486755 
	C125.377174,306.700775 125.377174,419.127869 125.377174,531.632080 
	C152.955200,531.632080 180.313812,531.632080 207.840591,531.632080 
	C207.840591,530.107971 207.840576,528.954773 207.840576,527.801514 
	C207.840607,417.986511 207.840652,308.171478 207.840027,198.356461 
	C207.840012,197.356674 208.189545,196.128174 207.734756,195.415634 
	C207.180176,194.546722 205.946167,194.111465 204.087311,193.486755 
z"/>
<path fill="#464646" opacity="1.000000" stroke="none" 
	d="
M808.000000,3.500000 
	C805.835449,3.955723 803.670837,3.872708 801.506287,3.872660 
	C538.859802,3.866848 276.213318,3.867152 13.566834,3.867562 
	C12.066966,3.867564 10.387234,3.452192 9.117403,3.994257 
	C7.826551,4.545296 6.791945,5.940768 5.942011,7.171483 
	C5.551440,7.737035 5.867556,8.792404 5.867556,9.625659 
	C5.867447,261.106323 5.867667,512.587036 5.869245,764.067688 
	C5.869249,764.734070 5.888875,765.400513 5.949669,766.533447 
	C4.333333,767.000000 2.666667,767.000000 1.000000,767.000000 
	C1.000000,511.666656 1.000000,256.333344 1.000000,1.000000 
	C268.500000,1.000000 536.000000,0.995178 803.499939,1.141375 
	C804.789001,1.142080 808.127441,-1.328458 808.000000,3.500000 
z"/>
<path fill="#FEFEFE" opacity="1.000000" stroke="none" 
	d="
M671.012390,496.017700 
	C647.073242,516.850342 618.961853,527.286865 588.305237,530.790161 
	C572.137939,532.637573 555.725586,532.855896 539.422119,532.886841 
	C508.762909,532.945190 478.102448,532.335388 447.442535,531.996704 
	C446.484344,531.986084 445.526978,531.901550 444.374512,531.841309 
	C444.374512,419.109650 444.374512,306.675720 444.374512,193.752380 
	C446.936890,193.636322 449.535248,193.424301 452.134369,193.415039 
	C492.291016,193.271698 532.477295,192.148972 572.595886,193.326065 
	C609.684631,194.414246 643.524963,206.202591 671.132629,232.181396 
	C692.627441,252.407913 705.338440,277.767578 711.888062,306.247009 
	C721.733093,349.056366 721.486145,391.804565 709.214661,434.132568 
	C702.275574,458.067535 689.780640,478.839935 671.012390,496.017700 
M545.499695,250.751801 
	C539.384155,250.751801 533.268616,250.751801 527.026978,250.751801 
	C527.026978,325.681610 527.026978,399.894806 527.026978,474.242554 
	C539.469543,474.242554 551.739014,474.600555 563.976379,474.127594 
	C573.512573,473.759033 582.571655,470.978058 591.016113,466.289185 
	C609.540161,456.003571 619.191528,439.210236 623.783875,419.543182 
	C632.473816,382.327972 632.173218,344.927521 622.757629,307.842102 
	C618.608032,291.497803 611.086182,276.746429 597.895508,265.542725 
	C582.999268,252.890411 565.263489,250.005081 545.499695,250.751801 
z"/>
<path fill="#FEFEFE" opacity="1.000000" stroke="none" 
	d="
M377.671936,240.605362 
	C368.001007,270.405579 356.239899,298.812439 335.911713,322.596130 
	C327.410736,332.542084 317.220947,341.046051 307.776154,350.182037 
	C306.477753,351.437988 305.046844,352.556946 303.304535,354.061127 
	C342.175964,413.208710 380.949371,472.207184 420.067780,531.730591 
	C418.238953,531.838928 416.863220,531.990906 415.487427,531.991577 
	C387.821655,532.005493 360.155457,531.930603 332.490662,532.095825 
	C329.181549,532.115601 327.533539,530.997131 325.863800,528.295776 
	C288.977051,468.618683 251.987915,409.004852 215.028793,349.372437 
	C211.436646,343.576599 212.055313,340.998505 217.981018,338.061462 
	C254.880661,319.772461 277.573120,289.363159 290.802246,251.395920 
	C297.348419,232.608566 302.302307,213.266403 308.106262,193.738983 
	C334.448761,193.738983 361.543884,193.738983 389.712219,193.738983 
	C385.692963,209.443741 381.753265,224.837814 377.671936,240.605362 
z"/>
<path fill="#FDFDFD" opacity="1.000000" stroke="none" 
	d="
M204.546661,193.487701 
	C205.946167,194.111465 207.180176,194.546722 207.734756,195.415634 
	C208.189545,196.128174 207.840012,197.356674 207.840027,198.356461 
	C207.840652,308.171478 207.840607,417.986511 207.840576,527.801514 
	C207.840576,528.954773 207.840591,530.107971 207.840591,531.632080 
	C180.313812,531.632080 152.955200,531.632080 125.377174,531.632080 
	C125.377174,419.127869 125.377174,306.700775 125.377174,193.486755 
	C151.595978,193.486755 177.841644,193.486755 204.546661,193.487701 
z"/>
<path fill="#010101" opacity="1.000000" stroke="none" 
	d="
M545.999634,250.738464 
	C565.263489,250.005081 582.999268,252.890411 597.895508,265.542725 
	C611.086182,276.746429 618.608032,291.497803 622.757629,307.842102 
	C632.173218,344.927521 632.473816,382.327972 623.783875,419.543182 
	C619.191528,439.210236 609.540161,456.003571 591.016113,466.289185 
	C582.571655,470.978058 573.512573,473.759033 563.976379,474.127594 
	C551.739014,474.600555 539.469543,474.242554 527.026978,474.242554 
	C527.026978,399.894806 527.026978,325.681610 527.026978,250.751801 
	C533.268616,250.751801 539.384155,250.751801 545.999634,250.738464 
z"/>
</svg>